<svg width="180" height="180" viewBox="0 0 180 180" fill="none" xmlns="http://www.w3.org/2000/svg">
<circle cx="90" cy="90" r="90" fill="#F78937" fill-opacity="0.06"/>
<circle cx="90" cy="90" r="76.5" fill="#F78937" fill-opacity="0.12"/>
<path d="M144 90C144 104.322 138.311 118.057 128.184 128.184C118.057 138.311 104.322 144 90 144C75.6783 144 61.9432 138.311 51.8162 128.184C41.6893 118.057 36 104.322 36 90C36 75.6783 41.6893 61.9432 51.8162 51.8162C61.9432 41.6893 75.6783 36 90 36C104.322 36 118.057 41.6893 128.184 51.8162C138.311 61.9432 144 75.6783 144 90ZM117.202 69.5475C116.72 69.067 116.146 68.6887 115.515 68.4352C114.883 68.1817 114.206 68.0582 113.526 68.072C112.845 68.0859 112.175 68.2369 111.554 68.5159C110.933 68.7949 110.375 69.1963 109.912 69.696L86.4698 99.5648L72.342 85.4302C71.3823 84.536 70.113 84.0492 68.8015 84.0723C67.4899 84.0955 66.2386 84.6268 65.3111 85.5543C64.3835 86.4818 63.8522 87.7332 63.8291 89.0447C63.8059 90.3563 64.2928 91.6256 65.187 92.5853L83.0475 110.452C83.5287 110.933 84.1016 111.311 84.7322 111.565C85.3628 111.819 86.0381 111.944 86.7178 111.931C87.3975 111.919 88.0677 111.769 88.6884 111.492C89.3092 111.215 89.8677 110.815 90.3307 110.318L117.277 76.635C118.195 75.6799 118.703 74.4026 118.69 73.0775C118.678 71.7523 118.146 70.485 117.209 69.5475H117.202Z" fill="#F78937"/>
<circle cx="90" cy="90" r="34.875" fill="#F78937"/>
<path d="M90.6694 93.3657C89.8723 93.3717 89.1002 93.6445 88.4762 94.1405C87.8521 94.6366 87.4122 95.3273 87.2265 96.1025C87.0408 96.8777 87.12 97.6928 87.4515 98.4177C87.783 99.1426 88.3478 99.7357 89.0556 100.102V104.337H92.0168V100.236C92.7812 99.9222 93.4133 99.3534 93.8051 98.626C94.1969 97.8986 94.3241 97.0579 94.1651 96.2471C94.0061 95.4364 93.5707 94.706 92.9332 94.1805C92.2957 93.655 91.4956 93.367 90.6694 93.3657Z" fill="#FEFEFE"/>
<path d="M102.381 85.0893V78.7525C102.444 75.5425 101.234 72.438 99.0139 70.1183C96.7942 67.7986 93.7459 66.4527 90.5362 66.375C87.3265 66.4527 84.2782 67.7986 82.0584 70.1183C79.8386 72.438 78.6281 75.5425 78.6917 78.7525V85.0893H74.25V110.259C74.25 111.044 74.562 111.797 75.1173 112.353C75.6726 112.908 76.4258 113.22 77.2111 113.22H103.861C104.647 113.22 105.4 112.908 105.955 112.353C106.51 111.797 106.822 111.044 106.822 110.259V85.0893H102.381ZM81.6528 78.7525C81.589 76.3277 82.4875 73.9762 84.152 72.2118C85.8166 70.4474 88.1118 69.4135 90.5362 69.3361C92.9606 69.4135 95.2558 70.4474 96.9204 72.2118C98.5849 73.9762 99.4834 76.3277 99.4196 78.7525V85.0893H81.6528V78.7525ZM77.2111 110.259V88.0504H103.861V110.259H77.2111Z" fill="#FEFEFE"/>
</svg>
