<svg width="306" height="100" viewBox="0 0 306 100" fill="none" xmlns="http://www.w3.org/2000/svg">
<path d="M147.437 31.7333H148.123L147.913 31.0803C145.699 24.1917 139.591 20.3334 132.003 20.3334C122.139 20.3334 114.597 27.5809 114.597 37.7867C114.597 47.9953 122.142 55.1926 132.051 55.1926C141.141 55.1926 147.363 48.8316 148.735 41.8725L148.744 41.8246V41.7757V35.9822V35.4822H148.244H130.294H129.794V35.9822V41.0634V41.5634H130.294H141.058C140.533 43.5442 139.568 45.1385 138.218 46.2655C136.736 47.5032 134.754 48.209 132.288 48.209C129.318 48.209 126.866 47.2063 125.157 45.4299C123.446 43.6522 122.436 41.0543 122.436 37.7867C122.436 34.5912 123.434 32.0145 125.107 30.2408C126.778 28.4692 129.158 27.4594 132.003 27.4594C135.364 27.4594 137.933 28.8561 139.352 31.4717L139.494 31.7333H139.791H147.437ZM173.489 21.2133V20.7133H172.989H153.757H153.257V21.2133V54.4076V54.9076H153.757H172.989H173.489V54.4076V48.994V48.494H172.989H160.905V40.7086H171.565H172.065V40.2086V34.9374V34.4374H171.565H160.905V27.127H172.989H173.489V26.627V21.2133ZM177.368 26.627V27.127H177.868H186.201V54.4076V54.9076H186.701H193.349H193.849V54.4076V27.127H202.182H202.682V26.627V21.2608V20.7608H202.182H177.868H177.368V21.2608V26.627ZM217.278 26.627V27.127H217.778H226.111V54.4076V54.9076H226.611H233.259H233.759V54.4076V27.127H242.092H242.592V26.627V21.2608V20.7608H242.092H217.778H217.278V21.2608V26.627ZM267.27 21.2133V20.7133H266.77H247.537H247.037V21.2133V54.4076V54.9076H247.537H266.77H267.27V54.4076V48.994V48.494H266.77H254.685V40.7086H265.345H265.845V40.2086V34.9374V34.4374H265.345H254.685V27.127H266.77H267.27V26.627V21.2133ZM295.107 20.7133H294.607V21.2133V42.3433L280.471 20.9377L280.322 20.7133H280.053H273.405H272.905V21.2133V54.4076V54.9076H273.405H280.053H280.553V54.4076V33.3222L294.69 54.6836L294.838 54.9076H295.107H301.756H302.256V54.4076V21.2133V20.7133H301.756H295.107Z" fill="#FA943A" stroke="#FA943A"/>
<path d="M118.246 79.0338L115.005 67.4324H116.617L119.143 77.2554L121.936 67.4324H123.631L126.29 77.2221L128.833 67.4324H130.462L127.105 79.0172H125.41L122.717 69.6928L119.925 79.0172L118.246 79.0338Z" fill="#303030"/>
<path d="M143.135 74.4464C143.135 77.3385 141.057 79.1668 138.464 79.1668C135.888 79.1668 133.927 77.3385 133.927 74.4464C133.927 71.571 135.955 69.7593 138.531 69.7593C141.124 69.7593 143.135 71.571 143.135 74.4464ZM135.473 74.4464C135.473 76.7567 136.885 77.8371 138.464 77.8371C140.043 77.8371 141.589 76.7567 141.589 74.4464C141.589 72.1527 140.077 71.0724 138.514 71.0724C136.919 71.0724 135.473 72.1527 135.473 74.4464Z" fill="#303030"/>
<path d="M149.01 74.0641V79.0172H147.498V69.9089H149.01V71.3882C149.526 70.3743 150.506 69.7427 151.952 69.7427V71.3051H151.553C150.107 71.3051 149.01 71.9533 149.01 74.0641Z" fill="#303030"/>
<path d="M156.073 79.0172V66.7177H157.585V79.0172H156.073Z" fill="#303030"/>
<path d="M164.316 79.0172L161.457 69.9089H163.003L165.097 77.5545L167.358 69.9089H168.903L171.114 77.5712L173.175 69.9089H174.671L171.829 79.0172H170.266L168.072 71.7871L165.878 79.0172H164.316Z" fill="#303030"/>
<path d="M178.546 79.0172V69.9089H180.059V79.0172H178.546ZM179.327 68.4296C178.746 68.4296 178.297 67.9809 178.297 67.3991C178.297 66.8174 178.746 66.3687 179.327 66.3687C179.876 66.3687 180.325 66.8174 180.325 67.3991C180.325 67.9809 179.876 68.4296 179.327 68.4296Z" fill="#303030"/>
<path d="M184.446 74.4298C184.446 71.5876 186.324 69.7593 188.784 69.7593C190.213 69.7593 191.526 70.4906 192.158 71.5378V66.7177H193.687V79.0172H192.158V77.3052C191.609 78.3191 190.429 79.1668 188.767 79.1668C186.324 79.1668 184.446 77.2554 184.446 74.4298ZM192.158 74.4464C192.158 72.3356 190.729 71.0724 189.066 71.0724C187.404 71.0724 185.992 72.2857 185.992 74.4298C185.992 76.5739 187.404 77.8371 189.066 77.8371C190.729 77.8371 192.158 76.5905 192.158 74.4464Z" fill="#303030"/>
<path d="M202.49 71.0391C201.011 71.0391 199.781 72.0198 199.615 73.7982H205.366C205.382 72.0198 204.053 71.0391 202.49 71.0391ZM206.745 76.2082C206.28 77.8703 204.817 79.1668 202.557 79.1668C199.964 79.1668 198.052 77.3385 198.052 74.4464C198.052 71.571 199.897 69.7593 202.557 69.7593C205.199 69.7593 206.928 71.6209 206.928 74.114C206.928 74.4464 206.911 74.7124 206.878 75.0282H199.598C199.714 76.8731 201.011 77.887 202.557 77.887C203.92 77.887 204.784 77.1889 205.116 76.2082H206.745Z" fill="#303030"/>
<path d="M221.711 67.4324C225.517 67.4324 227.861 69.6596 227.861 73.2497C227.861 76.8398 225.517 79.0172 221.711 79.0172H218.104V67.4324H221.711ZM219.617 77.7706H221.711C224.736 77.7706 226.315 76.0753 226.315 73.2497C226.315 70.4242 224.736 68.6623 221.711 68.6623H219.617V77.7706Z" fill="#303030"/>
<path d="M232.23 79.0172V69.9089H233.743V79.0172H232.23ZM233.012 68.4296C232.43 68.4296 231.981 67.9809 231.981 67.3991C231.981 66.8174 232.43 66.3687 233.012 66.3687C233.56 66.3687 234.009 66.8174 234.009 67.3991C234.009 67.9809 233.56 68.4296 233.012 68.4296Z" fill="#303030"/>
<path d="M245.244 76.5407C245.244 78.0365 243.931 79.1668 241.92 79.1668C239.792 79.1668 238.296 78.0033 238.196 76.3412H239.759C239.842 77.2221 240.623 77.887 241.903 77.887C243.1 77.887 243.764 77.2886 243.764 76.5407C243.764 74.5129 238.379 75.693 238.379 72.3023C238.379 70.9062 239.692 69.7593 241.72 69.7593C243.731 69.7593 245.061 70.8397 245.161 72.6181H243.648C243.582 71.704 242.884 71.0391 241.67 71.0391C240.557 71.0391 239.892 71.571 239.892 72.3023C239.892 74.463 245.177 73.283 245.244 76.5407Z" fill="#303030"/>
<path d="M249.188 74.4464C249.188 71.5876 251.033 69.7593 253.626 69.7593C255.886 69.7593 257.366 70.9228 257.831 72.8342H256.202C255.886 71.7372 254.972 71.0391 253.626 71.0391C251.964 71.0391 250.734 72.2192 250.734 74.4464C250.734 76.7069 251.964 77.887 253.626 77.887C254.972 77.887 255.87 77.2387 256.202 76.0919H257.831C257.366 77.9036 255.886 79.1668 253.626 79.1668C251.033 79.1668 249.188 77.3385 249.188 74.4464Z" fill="#303030"/>
<path d="M270.866 74.4464C270.866 77.3385 268.789 79.1668 266.196 79.1668C263.62 79.1668 261.658 77.3385 261.658 74.4464C261.658 71.571 263.686 69.7593 266.262 69.7593C268.855 69.7593 270.866 71.571 270.866 74.4464ZM263.204 74.4464C263.204 76.7567 264.617 77.8371 266.196 77.8371C267.775 77.8371 269.321 76.7567 269.321 74.4464C269.321 72.1527 267.808 71.0724 266.246 71.0724C264.65 71.0724 263.204 72.1527 263.204 74.4464Z" fill="#303030"/>
<path d="M283.307 69.9089V79.0172H281.795V77.6709C281.213 78.6183 280.099 79.1501 278.886 79.1501C276.792 79.1501 275.146 77.8537 275.146 75.2442V69.9089H276.642V75.0448C276.642 76.8897 277.656 77.8371 279.185 77.8371C280.748 77.8371 281.795 76.8731 281.795 74.9118V69.9089H283.307Z" fill="#303030"/>
<path d="M294.9 79.0172V73.8647C294.9 72.0031 293.887 71.0558 292.357 71.0558C290.812 71.0558 289.748 72.0198 289.748 73.981V79.0172H288.236V69.9089H289.748V71.2053C290.346 70.2579 291.443 69.7427 292.673 69.7427C294.784 69.7427 296.396 71.0391 296.396 73.6486V79.0172H294.9Z" fill="#303030"/>
<path d="M301.574 76.524V71.1555H300.394V69.9089H301.574V67.6152H303.086V69.9089H305.463V71.1555H303.086V76.524C303.086 77.4216 303.419 77.7374 304.35 77.7374H305.463V79.0172H304.1C302.488 79.0172 301.574 78.3523 301.574 76.524Z" fill="#303030"/>
<mask id="mask0_1_476" style="mask-type:luminance" maskUnits="userSpaceOnUse" x="0" y="21" width="88" height="79">
<path d="M20.3923 71.1849L43.8396 84.7196L73.8988 67.3623V61.4629L43.8396 78.8201L30.5959 71.1849L87.1426 38.5372V74.9975L43.8396 100L0.536743 74.9975V67.3623L80.5207 21.1799L87.1426 25.0025V32.6478L20.3923 71.1849Z" fill="white"/>
</mask>
<g mask="url(#mask0_1_476)">
<path d="M87.1426 21.1799H0.536743V100H87.1426V21.1799Z" fill="#F4791B"/>
</g>
<mask id="mask1_1_476" style="mask-type:luminance" maskUnits="userSpaceOnUse" x="37" y="21" width="50" height="54">
<path d="M86.5004 74.6364V39.6509L56.2004 57.1487L68.1599 64.0414L74.541 60.3593V67.7236L86.5004 74.6364ZM86.5004 32.2765V25.3738L80.5207 21.9224L37.8599 46.5537L49.8193 53.4565L86.5004 32.2765Z" fill="white"/>
</mask>
<g mask="url(#mask1_1_476)">
<path d="M86.5004 21.9224H37.8599V74.6364H86.5004V21.9224Z" fill="#F89920"/>
</g>
<mask id="mask2_1_476" style="mask-type:luminance" maskUnits="userSpaceOnUse" x="0" y="0" width="76" height="62">
<path d="M13.7805 32.6478V38.5372L62.1802 10.5849L75.424 18.2302L0.536743 61.4629V25.0025L43.8397 0L57.0834 7.64524L13.7805 32.6478Z" fill="white"/>
</mask>
<g mask="url(#mask2_1_476)">
<path d="M75.424 0H0.536743V61.4629H75.424V0Z" fill="#F4791B"/>
</g>
<mask id="mask3_1_476" style="mask-type:luminance" maskUnits="userSpaceOnUse" x="1" y="0" width="74" height="43">
<path d="M31.4788 42.8614L74.1396 18.2302L62.1801 11.3274L19.5194 35.9587L31.4788 42.8614ZM55.7991 7.64521L43.8396 0.742432L1.17883 25.3737L13.1383 32.2765L55.7991 7.64521Z" fill="white"/>
</mask>
<g mask="url(#mask3_1_476)">
<path d="M74.1396 0.742432H1.17883V42.8715H74.1396V0.742432Z" fill="url(#paint0_linear_1_476)"/>
</g>
<defs>
<linearGradient id="paint0_linear_1_476" x1="-37.7334" y1="68.4106" x2="137.907" y2="-40.1737" gradientUnits="userSpaceOnUse">
<stop stop-color="#F5692D"/>
<stop offset="0.2007" stop-color="#F5692E"/>
<stop offset="0.4015" stop-color="#F68F11"/>
<stop offset="0.5883" stop-color="#FDAE42"/>
<stop offset="0.7562" stop-color="#FBA23E"/>
<stop offset="0.8991" stop-color="#FCA940"/>
<stop offset="1" stop-color="#FDAE41"/>
</linearGradient>
</defs>
</svg>
