<svg width="180" height="180" viewBox="0 0 180 180" fill="none" xmlns="http://www.w3.org/2000/svg">
<circle cx="90" cy="90" r="90" fill="#F78937" fill-opacity="0.06"/>
<circle cx="90" cy="90" r="76.5" fill="#F78937" fill-opacity="0.12"/>
<path d="M144 90C144 104.322 138.311 118.057 128.184 128.184C118.057 138.311 104.322 144 90 144C75.6783 144 61.9432 138.311 51.8162 128.184C41.6893 118.057 36 104.322 36 90C36 75.6783 41.6893 61.9432 51.8162 51.8162C61.9432 41.6893 75.6783 36 90 36C104.322 36 118.057 41.6893 128.184 51.8162C138.311 61.9432 144 75.6783 144 90ZM117.202 69.5475C116.72 69.067 116.146 68.6887 115.515 68.4352C114.883 68.1817 114.206 68.0582 113.526 68.072C112.845 68.0859 112.175 68.2369 111.554 68.5159C110.933 68.7949 110.375 69.1963 109.912 69.696L86.4698 99.5648L72.342 85.4302C71.3823 84.536 70.113 84.0492 68.8015 84.0723C67.4899 84.0955 66.2386 84.6268 65.3111 85.5543C64.3835 86.4818 63.8522 87.7332 63.8291 89.0447C63.8059 90.3563 64.2928 91.6256 65.187 92.5853L83.0475 110.452C83.5287 110.933 84.1016 111.311 84.7322 111.565C85.3628 111.819 86.0381 111.944 86.7178 111.931C87.3975 111.919 88.0677 111.769 88.6884 111.492C89.3092 111.215 89.8677 110.815 90.3307 110.318L117.277 76.635C118.195 75.6799 118.703 74.4026 118.69 73.0775C118.678 71.7523 118.146 70.485 117.209 69.5475H117.202Z" fill="#F78937"/>
<circle cx="90" cy="90" r="34.875" fill="#F78937"/>
<path d="M109.748 109.423C109.756 109.411 109.763 109.4 109.771 109.389C109.911 109.179 110.013 108.94 110.013 108.667C110.013 108.593 109.999 108.525 109.987 108.455V90C109.987 89.8493 109.953 89.7053 109.905 89.5667C109.895 89.5373 109.88 89.5093 109.868 89.48C109.796 89.3147 109.703 89.16 109.569 89.0347C109.569 89.0333 109.569 89.032 109.568 89.032L104.653 84.3853V78.28C104.653 77.5427 104.057 76.9467 103.32 76.9467C102.583 76.9467 101.987 77.5427 101.987 78.28V84.96V92.7707L97.5507 95.6773L90.9294 89.0573C90.408 88.536 89.5654 88.536 89.044 89.0573L82.4227 95.6773L77.9867 92.7707V84.96V72.6667H97.3734C98.1107 72.6667 98.7067 72.0707 98.7067 71.3333C98.7067 70.596 98.1107 70 97.3734 70H76.6534C75.916 70 75.32 70.596 75.32 71.3333V84.3853L70.404 89.0307C70.4027 89.0307 70.4027 89.032 70.4027 89.0333C70.2694 89.1587 70.176 89.3133 70.104 89.4787C70.0907 89.508 70.076 89.536 70.0667 89.5653C70.02 89.7053 69.9867 89.8493 69.9867 90V108.667C69.9867 108.688 69.9947 108.707 69.996 108.728C69.9987 108.795 70.0134 108.859 70.0254 108.924C70.0374 108.989 70.0507 109.055 70.072 109.117C70.08 109.137 70.08 109.157 70.088 109.177C70.1054 109.216 70.132 109.248 70.1534 109.285C70.184 109.345 70.216 109.404 70.2574 109.459C70.296 109.511 70.3414 109.556 70.3854 109.601C70.4307 109.645 70.476 109.689 70.528 109.729C70.5827 109.771 70.6414 109.803 70.7014 109.833C70.7387 109.855 70.7707 109.881 70.8094 109.899C70.8254 109.905 70.8414 109.903 70.8587 109.909C71.0054 109.963 71.1587 110 71.32 110H108.653C108.663 110 108.673 110 108.68 110C108.969 110 109.221 109.889 109.44 109.733C109.464 109.715 109.491 109.703 109.513 109.684C109.605 109.608 109.68 109.521 109.748 109.423ZM99.476 97.604L99.8334 97.3693L104.051 94.6093C104.052 94.608 104.053 94.6067 104.055 94.6053L107.32 92.468V105.447L99.476 97.604ZM104.653 88.0547L106.511 89.8093L104.653 91.0253V88.0547ZM72.6534 92.468L75.9187 94.6067C75.92 94.608 75.9214 94.6093 75.9227 94.6107L80.14 97.3707L80.4974 97.6053L72.6534 105.448V92.468ZM75.32 91.0253L73.4627 89.8107L75.32 88.0547V91.0253ZM74.5387 107.333L83.5427 98.3293L89.9867 91.8853L96.4307 98.3293L105.435 107.333H74.5387Z" fill="#FEFEFE"/>
<path d="M82.8987 77.0679C82.3627 76.5652 81.516 76.5919 81.0147 77.1292C80.5107 77.6652 80.5373 78.5092 81.0747 79.0132L88.156 85.6412C88.412 85.8812 88.74 86.0012 89.068 86.0012C89.396 86.0012 89.7227 85.8812 89.98 85.6412L104.232 72.3079C104.769 71.8039 104.797 70.9599 104.295 70.4226C103.789 69.8866 102.948 69.8572 102.409 70.3599L89.068 82.8412L82.8987 77.0679Z" fill="#FEFEFE"/>
</svg>
