<svg width="180" height="180" viewBox="0 0 180 180" fill="none" xmlns="http://www.w3.org/2000/svg">
<circle cx="90" cy="90" r="90" fill="#F78937" fill-opacity="0.06"/>
<circle cx="90" cy="90" r="76.5" fill="#F78937" fill-opacity="0.12"/>
<path d="M144 90C144 104.322 138.311 118.057 128.184 128.184C118.057 138.311 104.322 144 90 144C75.6783 144 61.9432 138.311 51.8162 128.184C41.6893 118.057 36 104.322 36 90C36 75.6783 41.6893 61.9432 51.8162 51.8162C61.9432 41.6893 75.6783 36 90 36C104.322 36 118.057 41.6893 128.184 51.8162C138.311 61.9432 144 75.6783 144 90ZM117.202 69.5475C116.72 69.067 116.146 68.6887 115.515 68.4352C114.883 68.1817 114.206 68.0582 113.526 68.072C112.845 68.0859 112.175 68.2369 111.554 68.5159C110.933 68.7949 110.375 69.1963 109.912 69.696L86.4698 99.5648L72.342 85.4302C71.3823 84.536 70.113 84.0492 68.8015 84.0723C67.4899 84.0955 66.2386 84.6268 65.3111 85.5543C64.3835 86.4818 63.8522 87.7332 63.8291 89.0447C63.8059 90.3563 64.2928 91.6256 65.187 92.5853L83.0475 110.452C83.5287 110.933 84.1016 111.311 84.7322 111.565C85.3628 111.819 86.0381 111.944 86.7178 111.931C87.3975 111.919 88.0677 111.769 88.6884 111.492C89.3092 111.215 89.8677 110.815 90.3307 110.318L117.277 76.635C118.195 75.6799 118.703 74.4026 118.69 73.0775C118.678 71.7523 118.146 70.485 117.209 69.5475H117.202Z" fill="#F78937"/>
<circle cx="90" cy="90" r="34.875" fill="#F78937"/>
<path d="M97.8552 68.0006C95.6468 68.0001 93.469 68.5169 91.4962 69.5096C89.5235 70.5023 87.8107 71.9433 86.4952 73.7172C85.1796 75.491 84.2978 77.5483 83.9205 79.7243C83.5432 81.9003 83.6809 84.1343 84.3225 86.2475L67.9989 102.571V111.999H77.4272L93.7508 95.6758C95.696 96.2663 97.7456 96.4304 99.7601 96.1571C101.774 95.8838 103.706 95.1794 105.424 94.0919C107.141 93.0045 108.604 91.5596 109.713 89.8556C110.822 88.1516 111.55 86.2287 111.848 84.2178C112.146 82.2069 112.007 80.1554 111.441 78.203C110.875 76.2507 109.894 74.4433 108.566 72.9042C107.238 71.3651 105.594 70.1303 103.746 69.2841C101.897 68.4379 99.8881 68.0001 97.8552 68.0006ZM97.8552 93.1428C96.7734 93.1422 95.6975 92.9823 94.6622 92.6682L92.8598 92.1214L91.5288 93.4523L86.5303 98.4509L84.3633 96.2855L82.1414 98.5075L84.3083 100.674L81.8161 103.167L79.6492 101L77.4272 103.222L79.5942 105.389L76.1261 108.857H71.1417V103.872L86.5444 88.4695L87.8769 87.1385L87.3301 85.3361C86.6584 83.122 86.7021 80.7525 87.4548 78.5647C88.2075 76.3768 89.6309 74.482 91.5226 73.1498C93.4143 71.8175 95.6779 71.1157 97.9915 71.1442C100.305 71.1727 102.551 71.9299 104.409 73.3083C106.267 74.6867 107.644 76.6159 108.342 78.8216C109.041 81.0274 109.026 83.3972 108.3 85.5941C107.575 87.791 106.174 89.7031 104.299 91.0583C102.424 92.4136 100.169 93.143 97.8552 93.1428Z" fill="#FEFEFE"/>
<path d="M99.4267 83.7145C101.162 83.7145 102.569 82.3075 102.569 80.5718C102.569 78.8361 101.162 77.429 99.4267 77.429C97.691 77.429 96.2839 78.8361 96.2839 80.5718C96.2839 82.3075 97.691 83.7145 99.4267 83.7145Z" fill="#FEFEFE"/>
</svg>
