<svg width="52" height="50" viewBox="0 0 52 50" fill="none" xmlns="http://www.w3.org/2000/svg">
<path d="M51.6431 35.9894C50.7325 30.184 45.7998 25.8964 39.9185 25.7826C33.9993 25.6687 28.8389 29.8046 27.7765 35.5721C27.6437 36.274 27.3971 36.3689 26.771 36.3689C20.0929 36.3499 13.3958 36.3499 6.71769 36.3499C6.30031 36.3499 5.86395 36.3689 5.4276 36.3309C4.19443 36.2361 3.22686 35.1547 3.24583 33.9405C3.24583 33.7318 3.34069 33.4662 3.47349 33.3144C6.66077 30.1651 9.82908 26.9968 13.0543 23.9043C14.629 22.4056 17.0953 22.5384 18.651 24.0751C19.2202 24.6442 19.8083 25.2134 20.3775 25.7636C21.8003 27.1675 23.375 27.1675 24.7979 25.7826C27.3212 23.3162 29.8065 20.8119 32.3677 18.3835C35.0807 15.8223 39.5391 15.7654 42.0813 18.1748C42.4797 18.5543 42.7074 18.9337 42.6884 19.5218C42.6694 20.3945 43.0678 20.9637 43.7698 21.1724C44.8512 21.4949 45.7239 20.736 45.7239 19.427C45.7239 14.8548 45.7429 10.3015 45.7239 5.72927C45.7239 5.21703 45.667 4.68581 45.5342 4.19254C44.8891 1.5934 42.7453 0.0187278 39.9564 -0.000244141C34.2839 -0.000244141 28.6302 -0.000244141 22.9576 -0.000244141C17.285 -0.000244141 11.6314 -0.000244141 5.95881 -0.000244141C2.56284 0.0187278 0.229299 2.3333 0.210327 5.7103C0.210327 15.0445 0.210327 24.3597 0.229299 33.6938C0.229299 34.5476 0.381074 35.4582 0.74154 36.2361C1.76602 38.4558 3.64424 39.4234 6.07264 39.4234C13.0164 39.4234 19.9601 39.4234 26.9228 39.4234C27.3781 39.4234 27.6247 39.4613 27.7196 40.0305C28.8579 46.5947 35.0617 50.9014 41.7777 49.8389C48.2092 48.7765 52.6676 42.5347 51.6431 35.9894ZM3.24583 28.4386C3.24583 20.9068 3.24583 13.3939 3.24583 5.86207C3.24583 3.96488 4.17545 3.03526 6.09161 3.03526C17.3609 3.03526 28.6113 3.03526 39.8806 3.03526C41.7967 3.03526 42.6884 3.94591 42.7074 5.88104C42.7074 8.57505 42.7074 11.2691 42.7074 13.982V14.5322C41.2276 14.1528 39.8236 13.6216 38.4008 13.4508C35.3652 13.0714 32.6523 13.982 30.4326 16.069C27.9662 18.3646 25.6137 20.755 23.2043 23.1265C23.0335 23.2972 22.9007 23.487 22.5972 23.8854C22.3126 23.5059 22.1229 23.2024 21.8952 22.9368C20.3205 21.1914 18.4992 19.9202 16.0329 19.8633C13.908 19.8064 12.1057 20.5653 10.588 22.0451C8.36824 24.2458 6.14853 26.4466 3.90985 28.6283C3.7391 28.7991 3.54938 28.9698 3.24583 29.2544V28.4386ZM39.7478 46.9742C34.6823 46.9931 30.5654 42.9521 30.5654 37.9246C30.5654 32.916 34.6253 28.8181 39.615 28.8181C44.6615 28.7991 48.7404 32.8591 48.7594 37.9056C48.7973 42.8383 44.6994 46.9552 39.7478 46.9742Z" fill="#F78937" fill-opacity="0.8"/>
<path d="M15.1602 5.06531C12.0488 5.06531 9.52552 7.55063 9.50654 10.6241C9.48757 13.7734 12.0488 16.3156 15.1981 16.2967C18.2716 16.2777 20.7569 13.7544 20.7569 10.662C20.7569 7.5696 18.2526 5.06531 15.1602 5.06531ZM15.1033 13.2801C13.6614 13.2422 12.4851 12.028 12.542 10.5861C12.599 9.20118 13.7752 8.06287 15.1412 8.08184C16.5831 8.10081 17.7783 9.31501 17.7403 10.7379C17.7024 12.1418 16.4882 13.2991 15.1033 13.2801Z" fill="#F78937" fill-opacity="0.8"/>
<path d="M45.9516 38.4557C45.8757 38.892 45.4203 39.3853 45.003 39.6319C44.4907 39.9355 43.8836 39.7458 43.4473 39.3094C42.7453 38.6075 42.0623 37.8865 41.3793 37.1846C41.3224 37.2225 41.2465 37.2605 41.1896 37.2984V41.1307C41.1896 41.5481 41.2086 41.9845 41.1706 42.4018C41.0948 43.3315 40.4687 43.9575 39.6339 43.9386C38.7992 43.9196 38.1541 43.2746 38.1351 42.3639C38.0972 40.922 38.1351 39.4802 38.1351 38.0383V37.0518C37.528 37.6589 37.0348 38.1521 36.5415 38.6264C36.2569 38.911 35.9723 39.2146 35.6688 39.4612C35.0427 39.9355 34.189 39.8596 33.6578 39.3094C33.1266 38.7592 33.0886 37.9055 33.6009 37.2984C34.0941 36.7293 34.6633 36.217 35.1945 35.6858C36.2759 34.6044 37.3763 33.504 38.4577 32.4226C39.2924 31.6068 40.1272 31.6638 40.905 32.4795C42.3848 34.0163 43.9405 35.4771 45.3824 37.0328C45.7429 37.3933 46.0275 38.0193 45.9516 38.4557Z" fill="#F78937" fill-opacity="0.8"/>
</svg>
